<?xml version="1.0" encoding="UTF-8"?>
<svg id="Layer_1" xmlns="http://www.w3.org/2000/svg" xmlns:xlink="http://www.w3.org/1999/xlink" version="1.1" viewBox="0 0 792.12 156.68">
  <!-- Generator: Adobe Illustrator 30.2.1, SVG Export Plug-In . SVG Version: 2.1.1 Build 1)  -->
  <defs>
    <style>
      .st0 {
        fill: url(#linear-gradient2);
      }

      .st1 {
        fill: url(#linear-gradient1);
      }

      .st2 {
        fill: url(#linear-gradient);
      }

      .st3 {
        fill: #fff;
      }
    </style>
    <linearGradient id="linear-gradient" x1="35.79" y1="37.03" x2="213.65" y2="138.67" gradientUnits="userSpaceOnUse">
      <stop offset="0" stop-color="#d2a63d"/>
      <stop offset=".35" stop-color="#a6822d"/>
      <stop offset=".7" stop-color="#f5eb81"/>
      <stop offset=".79" stop-color="#e7d067"/>
      <stop offset=".93" stop-color="#d7b148"/>
      <stop offset="1" stop-color="#d2a63d"/>
    </linearGradient>
    <linearGradient id="linear-gradient1" x1="63.03" y1="-10.62" x2="240.89" y2="91.01" xlink:href="#linear-gradient"/>
    <linearGradient id="linear-gradient2" x1="32.31" y1="43.13" x2="210.17" y2="144.76" xlink:href="#linear-gradient"/>
  </defs>
  <g>
    <polygon class="st2" points="152.03 71.56 146.01 81.99 124.54 119.17 112.11 119.17 91.07 82.72 70.03 119.17 69.42 120.23 90.46 156.68 146.19 156.68 167.66 119.5 167.47 119.17 167.67 119.49 173.68 109.07 195.34 71.56 209.13 47.67 165.81 47.67 152.03 71.56"/>
    <polygon class="st1" points="55.35 0 77.01 37.51 117.18 37.51 111.31 47.67 97.09 72.3 118.75 109.81 140.4 72.3 146.43 61.86 154.62 47.67 160.49 37.51 215 37.51 236.65 0 55.35 0"/>
    <polygon class="st0" points="91.5 62.6 100.12 47.67 70.83 47.67 64.96 37.51 63.82 35.53 43.31 0 0 0 21.66 37.51 27.52 47.67 42.16 73.03 63.82 110.54 85.48 73.04 91.5 62.6"/>
  </g>
  <g>
    <g>
      <path class="st3" d="M724.36,78.71l-16.43.13-8.2-16.4-9.11-.06-5.14,16.47-14.73-.05,14.75-46.98,35.02.02c2.68,0,5.29.68,7.7,1.55,7.01,3,2.57,14.65.37,19.86s-6.87,8.3-13.06,8.81l8.83,16.66ZM711.98,51.62c3.97,0,5.42-8.35,3.47-8.35l-25.74-.07,5.45,3.13-1.18,5.31h18Z"/>
      <path class="st3" d="M361.16,78.73l-38.71.09,3.64-11.59,33.17-.14c2.56-.01,4.23-4.93,2.61-6.69l-17.77-.14c-5.3-.04-13.19-1.15-12.59-8.27.93-11.09,5.72-20.05,18.04-20.08l35.03-.08-3.51,11.32h-30.24c-1.52,0-2.85,1.25-3.36,2.18s-.67,4.22.68,4.24l18.96.23c1.86.02,3.92.3,5.69.72,9.67,2.27,3.87,17.05.9,21.81-2.49,3.98-7.47,6.39-12.54,6.4Z"/>
      <path class="st3" d="M663.3,31.88l14.7-.03-11.03,35.05c-2.16,6.88-8.07,11.46-15.49,11.85-8.7.45-17.26.37-25.96-.06-2.98-.15-6.04-1.88-7.32-3.65-1.79-2.49-2.52-5.9-1.58-8.86l10.88-34.34h14.65s-10.07,32.16-10.07,32.16c-.46,1.48.72,3.18,2.19,3.18l14.73.03c1.74,0,3.56-1.48,4.1-3.18l10.22-32.16Z"/>
      <path class="st3" d="M548.65,31.86h14.63s-10.65,34.11-10.65,34.11c-2.38,7.63-8.29,12.68-16.7,12.88-8.1.19-16.23.17-24.46-.1-2.97-.1-6.06-1.77-7.51-3.47-2.11-2.46-2.84-5.99-1.86-9.11l10.82-34.34,14.58.11-10.03,32.09c-.45,1.43.9,3.13,2.26,3.14l13.71.03c2.06,0,4.27-1.24,4.94-3.31l10.27-32.03Z"/>
      <path class="st3" d="M315.61,31.82l14.57.1-10.94,34.95c-2.24,6.69-7.58,11.38-14.96,11.79-8.5.47-16.96.34-25.54.07-3.32-.1-6.69-1.58-8.42-4.23-1.73-2.65-1.92-6.28-.95-9.41l10.37-33.25,14.66.02-9.98,32.17c-.16.52.13,2.05.52,2.4s1.47.75,2.04.75l13.73.03c2.09,0,3.98-1.3,4.64-3.35l10.26-32.04Z"/>
      <polygon class="st3" points="610.46 78.6 593.2 78.9 585.45 64.29 569.82 78.82 551.54 78.71 578.73 54.59 566.53 31.94 583.22 31.82 590.39 45.31 604.93 31.87 622.92 31.96 597.28 55.05 610.46 78.6"/>
      <polygon class="st3" points="792.12 31.97 762.95 60.97 757.33 78.74 742.5 78.85 748.37 60.34 735.16 31.88 751.46 31.85 758.63 48.48 774.78 31.88 792.12 31.97"/>
      <polygon class="st3" points="418.04 45.98 407.8 78.79 393.09 78.79 404.07 43.27 386.65 43.09 390.16 31.82 439.38 31.84 435.73 43.14 413.01 43.19 418.04 45.98"/>
      <polygon class="st3" points="464.38 67.06 498 67.13 494.4 78.83 450.23 78.85 465.09 31.88 479.77 31.84 469.64 64.23 464.38 67.06"/>
      <path class="st3" d="M218.42,78.85l3.88-11.69h19.85c2.37.01,4.43-1.39,5.17-3.67l10.26-31.65h14.83s-11.08,35.08-11.08,35.08c-2.31,7.32-8.51,11.5-16.06,11.9l-26.86.02Z"/>
    </g>
    <g>
      <path class="st3" d="M474.81,124.57l-7.9.06-7.34-15.2-4.84,15.18-7.63-.03,7.9-25.52c2.64-.21,5.35-.21,8.09-.05l7.16,15.26,4.72-15.17c2.43-.26,4.89-.3,7.69-.14l-7.84,25.61Z"/>
      <path class="st3" d="M637.4,124.62l-8.65.03-4.05-9.11-5.03-.12-3.02,9.14-7.75.03,8.12-25.79,18.77-.03c1.95,0,4.71.89,5.49,2.65,1.57,3.52-1.53,14.07-8.53,13.49l4.65,9.72ZM629.56,109.76c1.25-.1,2.45-.42,3.21-1.51.66-.96,1.09-3.12-.34-3.58-1.44-.46-12.13-.01-12.37-.22.92.74,2.22,1.49,2.1,2.15l-.56,3.04s6.78.21,7.96.12Z"/>
      <path class="st3" d="M390.93,124.62l-8.65.03-4.05-9.11-5.03-.12-3.02,9.14-7.75.03,8.12-25.79,18.77-.03c1.95,0,4.71.89,5.49,2.65,1.57,3.52-1.53,14.07-8.53,13.49l4.65,9.72ZM383.1,109.76c1.25-.1,2.45-.42,3.21-1.51.66-.96,1.09-3.12-.34-3.58-1.44-.46-12.13-.01-12.37-.22.92.74,2.22,1.49,2.1,2.15l-.56,3.04s6.78.21,7.96.12Z"/>
      <path class="st3" d="M519,111.24c1.03,2.37-.26,13.28-8.44,13.32l-20.41.11,1.66-6.1,16.9-.22c1.66-.02,2.77-2.68,1.77-3.76l-11.05-.49c-1.69-.07-4.25-1.22-4.43-3.05-.53-5.29,2.64-12.33,8.92-12.3l18.54.07-1.66,5.95-16.32.08c-1.09,0-1.76,3.58-.71,3.61l10.2.34c1.77.06,4.27.71,5.03,2.45Z"/>
      <path class="st3" d="M679.91,111.99c.28,1.36-.04,2.98-.29,4.2-.39,1.9-1.12,3.77-2.33,5.3-1.58,2.02-3.9,3.16-6.47,3.16,0,0-20.14,0-20.14,0,0,0,1.97-6.1,1.97-6.1,3.67,0,7.33,0,11,0,1.08,0,2.15.02,3.22.09,1.54.1,3.84.11,4.42-1.69.23-.73.07-1.55-.5-2.08-.61-.58-1.47-.55-2.26-.52-.95.02-1.9-.03-2.84-.04-1.94-.03-4,.12-5.93-.15-2.12-.3-4.08-1.84-4.25-4.09-.1-1.36.3-2.76.62-4.06.24-.98.63-1.94,1.13-2.82,1.1-1.93,2.91-3.41,5.04-4.06,1.37-.42,2.76-.38,4.16-.37,2.91.01,5.83.02,8.74.04,2.44,0,4.89.02,7.33.03h.32s-1.72,5.97-1.72,5.97c-2.91-.01-5.81-.09-8.72-.09-1.16,0-2.32,0-3.48.03-1.04.02-2.2-.05-3.21.19-.93.22-1.68.93-1.96,1.84-.24.79,0,1.55.86,1.76.58.14,1.22.06,1.81.09.95.06,1.9.09,2.86.13,1.73.06,3.47.07,5.2.14,1.58.06,3.11.25,4.37,1.31.57.47.87,1.11,1.02,1.82Z"/>
      <path class="st3" d="M594.05,114.23l-13.28.06-1.17,4.05,16.62.3-1.5,6h-25.01s7.99-25.85,7.99-25.85l24.04-.03c-.38,2.14-.88,3.79-1.64,5.99l-18.78-.05c1.52,1.41,1.83,2.06,1.3,3.91l13.01.27-1.58,5.35Z"/>
      <path class="st3" d="M425.79,119.99l-11.92-.05-3.3,4.6-8.37-.12,18.93-25.58,8.53.04,4.96,25.67-8.02.14-.81-4.7ZM424.97,114.34l-1.17-8.47-6.2,8.59,7.37-.12Z"/>
      <path class="st3" d="M543.91,109.35l13.53.1-1.92,5.33-13.34.02-3.13,9.82-7.74-.04,7.94-25.65,23.97-.07-1.74,5.96-18.88.02,1.83,1.5c.47.38-.25,1.75-.52,3.01Z"/>
      <path class="st3" d="M338.88,124.56l-7.71.06,5.88-19.54-9.38-.2,1.85-6h25.93c-.19,1.89-.77,3.93-1.61,6.02l-8.94.12-6.02,19.54Z"/>
    </g>
  </g>
</svg>